ffmpeg started on 2025-05-29 at 15:44:12
Report written to "D:\Convert\FFMetrics\reports\psnr_report-6.txt"
Log level: 32
Command line:
ffmpeg -hide_banner -nostdin -i "G:\\\xc0\xed\xe8\xec\xe5\\\xce\xed\xe3\xee\xe8\xed\xe3\xe8\\!_36_\xce\xf1\xe5\xed\xfc_2024\\JamClub\\\xd0\xe0\xed\xec\xe0 1_2\\[JamClub] Ranma 1_2 - 03 [1080p]_HEVC.mkv" -i "G:\\\xc0\xed\xe8\xec\xe5\\\xce\xed\xe3\xee\xe8\xed\xe3\xe8\\!_36_\xce\xf1\xe5\xed\xfc_2024\\JamClub\\\xd0\xe0\xed\xec\xe0 1_2\\[JamClub] Ranma 1_2 - 03 [1080p].mp4" -lavfi "[0:v]settb=AVTB,setpts=PTS-STARTPTS,format=pix_fmts=yuv420p10,fps=24000/1001,scale=1920:1080:flags=bicubic[main];[1:v]settb=AVTB,setpts=PTS-STARTPTS,format=pix_fmts=yuv420p,fps=24000/1001,scale=1920:1080:flags=bicubic[ref];[main][ref]psnr=eof_action=endall:stats_file='D\\:/Convert/FFMetrics/logs/psnr_logfile-6.txt'" -f null -
Input #0, matroska,webm, from 'G:\Аниме\Онгоинги\!_36_Осень_2024\JamClub\Ранма 1_2\[JamClub] Ranma 1_2 - 03 [1080p]_HEVC.mkv':
  Metadata:
    COMPATIBLE_BRANDS: isomiso2avc1mp41
    MAJOR_BRAND     : isom
    MINOR_VERSION   : 512
    ENCODER         : Lavf61.7.100
  Duration: 00:24:44.50, start: -0.001000, bitrate: 1851 kb/s
  Stream #0:0: Video: hevc (Main 10), yuv420p10le(tv, bt709, progressive), 1920x1080 [SAR 1:1 DAR 16:9], 23.98 fps, 23.98 tbr, 1k tbn (default)
      Metadata:
        HANDLER_NAME    : VideoHandler
        VENDOR_ID       : [0][0][0][0]
        ENCODER         : Lavc61.19.100 libx265
        BPS             : 1661528
        DURATION        : 00:24:44.315708333
        NUMBER_OF_FRAMES: 35588
        NUMBER_OF_BYTES : 308279030
        _STATISTICS_WRITING_APP: mkvpropedit v66.0.0 ('Josie') 64-bit
        _STATISTICS_WRITING_DATE_UTC: 2025-05-29 06:57:02
        _STATISTICS_TAGS: BPS DURATION NUMBER_OF_FRAMES NUMBER_OF_BYTES
  Stream #0:1(eng): Audio: aac (LC), 48000 Hz, stereo, fltp (default)
      Metadata:
        HANDLER_NAME    : SoundHandler
        VENDOR_ID       : [0][0][0][0]
        ENCODER         : Lavc61.19.100 aac
        BPS             : 186364
        DURATION        : 00:24:44.461000000
        NUMBER_OF_FRAMES: 69585
        NUMBER_OF_BYTES : 34581407
        _STATISTICS_WRITING_APP: mkvpropedit v66.0.0 ('Josie') 64-bit
        _STATISTICS_WRITING_DATE_UTC: 2025-05-29 06:57:02
        _STATISTICS_TAGS: BPS DURATION NUMBER_OF_FRAMES NUMBER_OF_BYTES
Input #1, mov,mp4,m4a,3gp,3g2,mj2, from 'G:\Аниме\Онгоинги\!_36_Осень_2024\JamClub\Ранма 1_2\[JamClub] Ranma 1_2 - 03 [1080p].mp4':
  Metadata:
    major_brand     : isom
    minor_version   : 512
    compatible_brands: isomiso2avc1mp41
    encoder         : Lavf60.16.100
  Duration: 00:24:44.48, start: 0.000000, bitrate: 4082 kb/s
  Stream #1:0[0x1](und): Video: h264 (High) (avc1 / 0x31637661), yuv420p(progressive), 1920x1080 [SAR 1:1 DAR 16:9], 3884 kb/s, 23.98 fps, 23.98 tbr, 90k tbn (default)
      Metadata:
        handler_name    : VideoHandler
        vendor_id       : [0][0][0][0]
  Stream #1:1[0x2](eng): Audio: aac (LC) (mp4a / 0x6134706D), 48000 Hz, stereo, fltp, 191 kb/s (default)
      Metadata:
        handler_name    : SoundHandler
        vendor_id       : [0][0][0][0]
Stream mapping:
  Stream #0:0 (hevc) -> settb:default
  Stream #1:0 (h264) -> settb:default
  psnr:default -> Stream #0:0 (wrapped_avframe)
  Stream #0:1 -> #0:1 (aac (native) -> pcm_s16le (native))
Output #0, null, to 'pipe:':
  Metadata:
    COMPATIBLE_BRANDS: isomiso2avc1mp41
    MAJOR_BRAND     : isom
    MINOR_VERSION   : 512
    encoder         : Lavf61.7.100
  Stream #0:0: Video: wrapped_avframe, yuv420p10le(tv, bt709, progressive), 1920x1080 [SAR 1:1 DAR 16:9], q=2-31, 200 kb/s, 23.98 fps, 23.98 tbn
      Metadata:
        encoder         : Lavc61.19.100 wrapped_avframe
  Stream #0:1(eng): Audio: pcm_s16le, 48000 Hz, stereo, s16, 1536 kb/s (default)
      Metadata:
        HANDLER_NAME    : SoundHandler
        VENDOR_ID       : [0][0][0][0]
        _STATISTICS_TAGS: BPS DURATION NUMBER_OF_FRAMES NUMBER_OF_BYTES
        BPS             : 186364
        DURATION        : 00:24:44.461000000
        NUMBER_OF_FRAMES: 69585
        NUMBER_OF_BYTES : 34581407
        _STATISTICS_WRITING_APP: mkvpropedit v66.0.0 ('Josie') 64-bit
        _STATISTICS_WRITING_DATE_UTC: 2025-05-29 06:57:02
        encoder         : Lavc61.19.100 pcm_s16le
frame=  112 fps=0.0 q=-0.0 size=N/A time=00:00:04.67 bitrate=N/A speed=9.27x    frame=  274 fps=267 q=-0.0 size=N/A time=00:00:11.42 bitrate=N/A speed=11.1x    frame=  467 fps=304 q=-0.0 size=N/A time=00:00:19.47 bitrate=N/A speed=12.7x    frame=  735 fps=357 q=-0.0 size=N/A time=00:00:30.65 bitrate=N/A speed=14.9x    frame=  969 fps=378 q=-0.0 size=N/A time=00:00:40.41 bitrate=N/A speed=15.7x    frame= 1212 fps=392 q=-0.0 size=N/A time=00:00:50.55 bitrate=N/A speed=16.4x    frame= 1428 fps=397 q=-0.0 size=N/A time=00:00:59.55 bitrate=N/A speed=16.6x    frame= 1656 fps=402 q=-0.0 size=N/A time=00:01:09.06 bitrate=N/A speed=16.8x    frame= 1857 fps=400 q=-0.0 size=N/A time=00:01:17.45 bitrate=N/A speed=16.7x    frame= 2011 fps=389 q=-0.0 size=N/A time=00:01:23.87 bitrate=N/A speed=16.2x    frame= 2181 fps=384 q=-0.0 size=N/A time=00:01:30.96 bitrate=N/A speed=  16x    frame= 2382 fps=384 q=-0.0 size=N/A time=00:01:39.34 bitrate=N/A speed=  16x    frame= 2539 fps=378 q=-0.0 size=N/A time=00:01:45.89 bitrate=N/A speed=15.8x    frame= 2726 fps=377 q=-0.0 size=N/A time=00:01:53.69 bitrate=N/A speed=15.7x    frame= 2880 fps=372 q=-0.0 size=N/A time=00:02:00.12 bitrate=N/A speed=15.5x    frame= 3040 fps=368 q=-0.0 size=N/A time=00:02:06.79 bitrate=N/A speed=15.4x    frame= 3207 fps=365 q=-0.0 size=N/A time=00:02:13.75 bitrate=N/A speed=15.2x    frame= 3352 fps=361 q=-0.0 size=N/A time=00:02:19.80 bitrate=N/A speed=15.1x    frame= 3494 fps=356 q=-0.0 size=N/A time=00:02:25.72 bitrate=N/A speed=14.9x    frame= 3659 fps=355 q=-0.0 size=N/A time=00:02:32.61 bitrate=N/A speed=14.8x    frame= 3813 fps=352 q=-0.0 size=N/A time=00:02:39.03 bitrate=N/A speed=14.7x    frame= 4001 fps=352 q=-0.0 size=N/A time=00:02:46.87 bitrate=N/A speed=14.7x    frame= 4154 fps=350 q=-0.0 size=N/A time=00:02:53.25 bitrate=N/A speed=14.6x    frame= 4396 fps=355 q=-0.0 size=N/A time=00:03:03.34 bitrate=N/A speed=14.8x    frame= 4632 fps=359 q=-0.0 size=N/A time=00:03:13.19 bitrate=N/A speed=  15x    frame= 4863 fps=363 q=-0.0 size=N/A time=00:03:22.82 bitrate=N/A speed=15.1x    frame= 5069 fps=364 q=-0.0 size=N/A time=00:03:31.41 bitrate=N/A speed=15.2x    frame= 5312 fps=368 q=-0.0 size=N/A time=00:03:41.55 bitrate=N/A speed=15.3x    frame= 5516 fps=369 q=-0.0 size=N/A time=00:03:50.06 bitrate=N/A speed=15.4x    frame= 5690 fps=368 q=-0.0 size=N/A time=00:03:57.32 bitrate=N/A speed=15.3x    frame= 5910 fps=370 q=-0.0 size=N/A time=00:04:06.49 bitrate=N/A speed=15.4x    frame= 6161 fps=373 q=-0.0 size=N/A time=00:04:16.96 bitrate=N/A speed=15.6x    frame= 6414 fps=377 q=-0.0 size=N/A time=00:04:27.51 bitrate=N/A speed=15.7x    frame= 6666 fps=380 q=-0.0 size=N/A time=00:04:38.02 bitrate=N/A speed=15.9x    frame= 6833 fps=378 q=-0.0 size=N/A time=00:04:44.99 bitrate=N/A speed=15.8x    frame= 7076 fps=381 q=-0.0 size=N/A time=00:04:55.12 bitrate=N/A speed=15.9x    frame= 7293 fps=382 q=-0.0 size=N/A time=00:05:04.17 bitrate=N/A speed=15.9x    frame= 7518 fps=384 q=-0.0 size=N/A time=00:05:13.56 bitrate=N/A speed=  16x    frame= 7760 fps=386 q=-0.0 size=N/A time=00:05:23.65 bitrate=N/A speed=16.1x    frame= 7998 fps=388 q=-0.0 size=N/A time=00:05:33.58 bitrate=N/A speed=16.2x    frame= 8242 fps=390 q=-0.0 size=N/A time=00:05:43.76 bitrate=N/A speed=16.3x    frame= 8506 fps=393 q=-0.0 size=N/A time=00:05:54.77 bitrate=N/A speed=16.4x    frame= 8719 fps=393 q=-0.0 size=N/A time=00:06:03.65 bitrate=N/A speed=16.4x    frame= 8930 fps=394 q=-0.0 size=N/A time=00:06:12.45 bitrate=N/A speed=16.4x    frame= 9145 fps=394 q=-0.0 size=N/A time=00:06:21.42 bitrate=N/A speed=16.4x    frame= 9334 fps=393 q=-0.0 size=N/A time=00:06:29.30 bitrate=N/A speed=16.4x    frame= 9533 fps=393 q=-0.0 size=N/A time=00:06:37.60 bitrate=N/A speed=16.4x    frame= 9752 fps=394 q=-0.0 size=N/A time=00:06:46.73 bitrate=N/A speed=16.4x    frame=10008 fps=396 q=-0.0 size=N/A time=00:06:57.41 bitrate=N/A speed=16.5x    frame=10182 fps=395 q=-0.0 size=N/A time=00:07:04.67 bitrate=N/A speed=16.5x    frame=10366 fps=394 q=-0.0 size=N/A time=00:07:12.34 bitrate=N/A speed=16.4x    frame=10553 fps=393 q=-0.0 size=N/A time=00:07:20.14 bitrate=N/A speed=16.4x    frame=10768 fps=394 q=-0.0 size=N/A time=00:07:29.11 bitrate=N/A speed=16.4x    frame=11001 fps=395 q=-0.0 size=N/A time=00:07:38.83 bitrate=N/A speed=16.5x    frame=11262 fps=397 q=-0.0 size=N/A time=00:07:49.71 bitrate=N/A speed=16.6x    frame=11515 fps=399 q=-0.0 size=N/A time=00:08:00.27 bitrate=N/A speed=16.6x    frame=11748 fps=400 q=-0.0 size=N/A time=00:08:09.98 bitrate=N/A speed=16.7x    frame=12008 fps=401 q=-0.0 size=N/A time=00:08:20.83 bitrate=N/A speed=16.7x    frame=12249 fps=402 q=-0.0 size=N/A time=00:08:30.88 bitrate=N/A speed=16.8x    frame=12497 fps=404 q=-0.0 size=N/A time=00:08:41.22 bitrate=N/A speed=16.8x    frame=12755 fps=405 q=-0.0 size=N/A time=00:08:51.98 bitrate=N/A speed=16.9x    frame=13007 fps=407 q=-0.0 size=N/A time=00:09:02.50 bitrate=N/A speed=  17x    frame=13255 fps=408 q=-0.0 size=N/A time=00:09:12.84 bitrate=N/A speed=  17x    frame=13526 fps=410 q=-0.0 size=N/A time=00:09:24.14 bitrate=N/A speed=17.1x    frame=13789 fps=411 q=-0.0 size=N/A time=00:09:35.11 bitrate=N/A speed=17.1x    frame=14043 fps=412 q=-0.0 size=N/A time=00:09:45.71 bitrate=N/A speed=17.2x    frame=14323 fps=414 q=-0.0 size=N/A time=00:09:57.38 bitrate=N/A speed=17.3x    frame=14576 fps=415 q=-0.0 size=N/A time=00:10:07.94 bitrate=N/A speed=17.3x    frame=14819 fps=416 q=-0.0 size=N/A time=00:10:18.07 bitrate=N/A speed=17.4x    frame=15056 fps=417 q=-0.0 size=N/A time=00:10:27.96 bitrate=N/A speed=17.4x    frame=15314 fps=418 q=-0.0 size=N/A time=00:10:38.72 bitrate=N/A speed=17.4x    frame=15548 fps=418 q=-0.0 size=N/A time=00:10:48.48 bitrate=N/A speed=17.4x    frame=15805 fps=420 q=-0.0 size=N/A time=00:10:59.20 bitrate=N/A speed=17.5x    frame=16042 fps=420 q=-0.0 size=N/A time=00:11:09.08 bitrate=N/A speed=17.5x    frame=16293 fps=421 q=-0.0 size=N/A time=00:11:19.55 bitrate=N/A speed=17.6x    frame=16514 fps=421 q=-0.0 size=N/A time=00:11:28.77 bitrate=N/A speed=17.6x    frame=16761 fps=422 q=-0.0 size=N/A time=00:11:39.07 bitrate=N/A speed=17.6x    frame=16993 fps=422 q=-0.0 size=N/A time=00:11:48.74 bitrate=N/A speed=17.6x    frame=17260 fps=423 q=-0.0 size=N/A time=00:11:59.88 bitrate=N/A speed=17.7x    frame=17482 fps=423 q=-0.0 size=N/A time=00:12:09.14 bitrate=N/A speed=17.7x    frame=17745 fps=424 q=-0.0 size=N/A time=00:12:20.11 bitrate=N/A speed=17.7x    frame=18014 fps=426 q=-0.0 size=N/A time=00:12:31.33 bitrate=N/A speed=17.8x    frame=18271 fps=426 q=-0.0 size=N/A time=00:12:42.05 bitrate=N/A speed=17.8x    frame=18511 fps=427 q=-0.0 size=N/A time=00:12:52.06 bitrate=N/A speed=17.8x    frame=18767 fps=428 q=-0.0 size=N/A time=00:13:02.74 bitrate=N/A speed=17.8x    frame=19010 fps=428 q=-0.0 size=N/A time=00:13:12.87 bitrate=N/A speed=17.9x    frame=19251 fps=429 q=-0.0 size=N/A time=00:13:22.92 bitrate=N/A speed=17.9x    frame=19473 fps=429 q=-0.0 size=N/A time=00:13:32.18 bitrate=N/A speed=17.9x    frame=19627 fps=427 q=-0.0 size=N/A time=00:13:38.60 bitrate=N/A speed=17.8x    frame=19841 fps=427 q=-0.0 size=N/A time=00:13:47.53 bitrate=N/A speed=17.8x    frame=20107 fps=428 q=-0.0 size=N/A time=00:13:58.62 bitrate=N/A speed=17.9x    frame=20346 fps=428 q=-0.0 size=N/A time=00:14:08.59 bitrate=N/A speed=17.9x    frame=20566 fps=429 q=-0.0 size=N/A time=00:14:17.77 bitrate=N/A speed=17.9x    frame=20833 fps=429 q=-0.0 size=N/A time=00:14:28.90 bitrate=N/A speed=17.9x    frame=21068 fps=430 q=-0.0 size=N/A time=00:14:38.71 bitrate=N/A speed=17.9x    frame=21259 fps=429 q=-0.0 size=N/A time=00:14:46.67 bitrate=N/A speed=17.9x    frame=21469 fps=429 q=-0.0 size=N/A time=00:14:55.43 bitrate=N/A speed=17.9x    frame=21732 fps=430 q=-0.0 size=N/A time=00:15:06.40 bitrate=N/A speed=17.9x    frame=21986 fps=430 q=-0.0 size=N/A time=00:15:16.99 bitrate=N/A speed=17.9x    frame=22074 fps=428 q=-0.0 size=N/A time=00:15:20.66 bitrate=N/A speed=17.8x    frame=22298 fps=428 q=-0.0 size=N/A time=00:15:30.01 bitrate=N/A speed=17.8x    frame=22555 fps=428 q=-0.0 size=N/A time=00:15:40.73 bitrate=N/A speed=17.9x    frame=22828 fps=429 q=-0.0 size=N/A time=00:15:52.11 bitrate=N/A speed=17.9x    frame=23055 fps=430 q=-0.0 size=N/A time=00:16:01.58 bitrate=N/A speed=17.9x    frame=23281 fps=430 q=-0.0 size=N/A time=00:16:11.01 bitrate=N/A speed=17.9x    frame=23553 fps=430 q=-0.0 size=N/A time=00:16:22.35 bitrate=N/A speed=  18x    frame=23798 fps=431 q=-0.0 size=N/A time=00:16:32.57 bitrate=N/A speed=  18x    frame=24053 fps=431 q=-0.0 size=N/A time=00:16:43.21 bitrate=N/A speed=  18x    frame=24313 fps=432 q=-0.0 size=N/A time=00:16:54.05 bitrate=N/A speed=  18x    frame=24561 fps=433 q=-0.0 size=N/A time=00:17:04.39 bitrate=N/A speed=  18x    frame=24814 fps=433 q=-0.0 size=N/A time=00:17:14.95 bitrate=N/A speed=18.1x    frame=25081 fps=434 q=-0.0 size=N/A time=00:17:26.08 bitrate=N/A speed=18.1x    frame=25348 fps=435 q=-0.0 size=N/A time=00:17:37.22 bitrate=N/A speed=18.1x    frame=25618 fps=435 q=-0.0 size=N/A time=00:17:48.48 bitrate=N/A speed=18.2x    frame=25859 fps=436 q=-0.0 size=N/A time=00:17:58.53 bitrate=N/A speed=18.2x    frame=26111 fps=436 q=-0.0 size=N/A time=00:18:09.04 bitrate=N/A speed=18.2x    frame=26383 fps=437 q=-0.0 size=N/A time=00:18:20.39 bitrate=N/A speed=18.2x    frame=26606 fps=437 q=-0.0 size=N/A time=00:18:29.69 bitrate=N/A speed=18.2x    frame=26875 fps=438 q=-0.0 size=N/A time=00:18:40.91 bitrate=N/A speed=18.3x    frame=27134 fps=438 q=-0.0 size=N/A time=00:18:51.71 bitrate=N/A speed=18.3x    frame=27390 fps=439 q=-0.0 size=N/A time=00:19:02.39 bitrate=N/A speed=18.3x    frame=27593 fps=438 q=-0.0 size=N/A time=00:19:10.85 bitrate=N/A speed=18.3x    frame=27842 fps=439 q=-0.0 size=N/A time=00:19:21.24 bitrate=N/A speed=18.3x    frame=28094 fps=439 q=-0.0 size=N/A time=00:19:31.75 bitrate=N/A speed=18.3x    frame=28356 fps=440 q=-0.0 size=N/A time=00:19:42.68 bitrate=N/A speed=18.3x    frame=28635 fps=440 q=-0.0 size=N/A time=00:19:54.31 bitrate=N/A speed=18.4x    frame=28870 fps=440 q=-0.0 size=N/A time=00:20:04.11 bitrate=N/A speed=18.4x    frame=29122 fps=441 q=-0.0 size=N/A time=00:20:14.63 bitrate=N/A speed=18.4x    frame=29379 fps=441 q=-0.0 size=N/A time=00:20:25.34 bitrate=N/A speed=18.4x    frame=29584 fps=441 q=-0.0 size=N/A time=00:20:33.89 bitrate=N/A speed=18.4x    frame=29792 fps=441 q=-0.0 size=N/A time=00:20:42.57 bitrate=N/A speed=18.4x    frame=30026 fps=441 q=-0.0 size=N/A time=00:20:52.33 bitrate=N/A speed=18.4x    frame=30250 fps=441 q=-0.0 size=N/A time=00:21:01.67 bitrate=N/A speed=18.4x    frame=30465 fps=441 q=-0.0 size=N/A time=00:21:10.64 bitrate=N/A speed=18.4x    frame=30688 fps=441 q=-0.0 size=N/A time=00:21:19.94 bitrate=N/A speed=18.4x    frame=30943 fps=441 q=-0.0 size=N/A time=00:21:30.58 bitrate=N/A speed=18.4x    frame=31162 fps=441 q=-0.0 size=N/A time=00:21:39.71 bitrate=N/A speed=18.4x    frame=31380 fps=441 q=-0.0 size=N/A time=00:21:48.80 bitrate=N/A speed=18.4x    frame=31620 fps=441 q=-0.0 size=N/A time=00:21:58.81 bitrate=N/A speed=18.4x    frame=31807 fps=440 q=-0.0 size=N/A time=00:22:06.61 bitrate=N/A speed=18.4x    frame=31958 fps=439 q=-0.0 size=N/A time=00:22:12.91 bitrate=N/A speed=18.3x    frame=32116 fps=438 q=-0.0 size=N/A time=00:22:19.50 bitrate=N/A speed=18.3x    frame=32246 fps=437 q=-0.0 size=N/A time=00:22:24.92 bitrate=N/A speed=18.2x    frame=32408 fps=436 q=-0.0 size=N/A time=00:22:31.68 bitrate=N/A speed=18.2x    frame=32619 fps=436 q=-0.0 size=N/A time=00:22:40.48 bitrate=N/A speed=18.2x    frame=32797 fps=435 q=-0.0 size=N/A time=00:22:47.90 bitrate=N/A speed=18.2x    frame=32972 fps=435 q=-0.0 size=N/A time=00:22:55.20 bitrate=N/A speed=18.1x    frame=33130 fps=434 q=-0.0 size=N/A time=00:23:01.79 bitrate=N/A speed=18.1x    frame=33324 fps=433 q=-0.0 size=N/A time=00:23:09.88 bitrate=N/A speed=18.1x    frame=33520 fps=433 q=-0.0 size=N/A time=00:23:18.06 bitrate=N/A speed=18.1x    frame=33768 fps=433 q=-0.0 size=N/A time=00:23:28.40 bitrate=N/A speed=18.1x    frame=34043 fps=434 q=-0.0 size=N/A time=00:23:39.87 bitrate=N/A speed=18.1x    frame=34337 fps=435 q=-0.0 size=N/A time=00:23:52.13 bitrate=N/A speed=18.1x    frame=34625 fps=436 q=-0.0 size=N/A time=00:24:04.15 bitrate=N/A speed=18.2x    frame=34920 fps=437 q=-0.0 size=N/A time=00:24:16.45 bitrate=N/A speed=18.2x    frame=35214 fps=437 q=-0.0 size=N/A time=00:24:28.71 bitrate=N/A speed=18.2x    frame=35508 fps=438 q=-0.0 size=N/A time=00:24:40.97 bitrate=N/A speed=18.3x    [Parsed_psnr_10 @ 00000182a82767c0] PSNR y:46.995919 u:49.262651 v:49.623624 average:47.668292 min:36.447373 max:inf
[out#0/null @ 00000182a79f4540] video:15292KiB audio:278340KiB subtitle:0KiB other streams:0KiB global headers:0KiB muxing overhead: unknown
frame=35588 fps=438 q=-0.0 Lsize=N/A time=00:24:44.31 bitrate=N/A speed=18.3x    
